<svg width="270" height="275" viewBox="0 0 270 275" fill="none" xmlns="http://www.w3.org/2000/svg">
<g clip-path="url(#clip0_289_4)">
<path d="M18.0648 269.782C11.6841 268.114 5.66497 265.284 0.308594 261.435L8.08787 244.041C12.7418 247.356 17.8959 249.905 23.3547 251.59C29.0607 253.467 35.0267 254.432 41.0331 254.45C47.5936 254.45 52.4427 253.471 55.5804 251.512C56.9966 250.764 58.1828 249.645 59.0119 248.274C59.841 246.903 60.2817 245.332 60.2868 243.73C60.2927 242.61 60.0456 241.504 59.564 240.493C59.0824 239.482 58.3788 238.594 57.5057 237.893C55.4477 236.158 53.0782 234.831 50.5238 233.983C47.626 233.029 43.6975 232.037 38.7577 230.85C32.4312 229.416 26.1965 227.604 20.0874 225.422C15.2555 223.629 10.9588 220.637 7.60167 216.725C3.9662 212.276 2.08451 206.649 2.31176 200.907C2.24858 195.298 3.88985 189.803 7.01822 185.148C10.5549 180.113 15.4817 176.219 21.1959 173.941C28.5587 170.986 36.4478 169.569 44.3782 169.777C50.6713 169.769 56.9416 170.534 63.0485 172.054C68.6803 173.392 74.0679 175.605 79.0154 178.611L71.878 196.121C63.5005 191.147 53.9635 188.463 44.2226 188.339C37.7399 188.339 32.9621 189.383 29.8893 191.471C28.4744 192.32 27.303 193.52 26.4885 194.955C25.6741 196.39 25.2444 198.012 25.2412 199.662C25.2403 201.332 25.7531 202.961 26.7099 204.329C27.6667 205.697 29.0212 206.737 30.5894 207.308C35.8486 209.495 41.3154 211.145 46.9065 212.231C53.2386 213.659 59.4796 215.465 65.5962 217.639C70.3946 219.419 74.6776 222.36 78.0625 226.2C81.7241 230.638 83.5844 236.291 83.2746 242.037C83.3036 247.592 81.6343 253.023 78.4903 257.602C74.8959 262.662 69.9097 266.569 64.1376 268.848C56.7237 271.812 48.7805 273.223 40.7997 272.992C33.1081 272.998 25.4542 271.917 18.0648 269.782Z" fill="white"/>
<path d="M176.392 252.738V271.28H99.144V171.431H174.564V189.973H122.054V211.647H168.399V229.624H122.073V252.738H176.392Z" fill="white"/>
<path d="M272.077 252.738V271.28H194.79V171.431H270.288V189.973H217.778V211.647H264.123V229.624H217.778V252.738H272.077Z" fill="white"/>
<path d="M163.576 84.3069C166.147 79.5985 167.448 74.301 167.349 68.9366C167.447 63.5661 166.147 58.2624 163.576 53.5469C161.159 49.1347 157.554 45.4884 153.171 43.0211C148.616 40.5486 143.515 39.2535 138.332 39.2535C133.15 39.2535 128.049 40.5486 123.493 43.0211C119.12 45.5015 115.519 49.1447 113.089 53.5469C110.525 58.2653 109.225 63.567 109.316 68.9366C109.229 74.2997 110.528 79.5942 113.089 84.3069C115.516 88.7163 119.118 92.3664 123.493 94.8521C128.049 97.3247 133.15 98.6197 138.332 98.6197C143.515 98.6197 148.616 97.3247 153.171 94.8521C157.555 92.3771 161.159 88.7244 163.576 84.3069Z" fill="url(#paint0_linear_289_4)"/>
<path d="M254.263 66.8548C244.485 53.7734 233.014 42.0491 220.151 31.9895C191.834 10.2376 160.309 -0.813452 124.232 2.96103C111.697 4.2692 99.4344 7.47723 87.864 12.475C60.2476 24.3627 38.6795 43.5659 20.69 67.205C19.3047 68.9059 18.5483 71.0327 18.5483 73.2267C18.5483 75.4206 19.3047 77.5474 20.69 79.2483C36.1318 99.5799 54.4131 116.682 77.0314 128.764C100.368 141.607 127.18 146.703 153.599 143.317C168.338 141.398 182.627 136.914 195.821 130.068C214.862 120.144 231.791 106.611 245.667 90.2215C249.556 85.7272 253.679 81.4079 256.383 76.0186V70.5514C255.804 69.2503 255.093 68.0117 254.263 66.8548ZM182.771 133.745C178.336 135.722 173.527 136.718 168.671 136.663C162.17 136.759 155.747 135.235 149.982 132.227C142.853 128.006 136.417 122.71 130.903 116.526C122.89 115.603 115.201 112.833 108.44 108.432C101.979 104.237 96.6921 98.4652 93.0761 91.6613C89.367 84.6675 87.4744 76.8532 87.5723 68.9366C87.4467 60.2911 89.7151 51.7795 94.1263 44.3441C98.4866 37.0601 104.772 31.1219 112.291 27.1838C120.344 23.0788 129.255 20.9387 138.293 20.9387C147.332 20.9387 156.242 23.0788 164.295 27.1838C171.874 31.1788 178.2 37.1937 182.573 44.5628C186.946 51.9319 189.195 60.3677 189.072 68.9366C189.256 79.1357 186.063 89.1094 179.99 97.3036C174 105.388 165.574 111.335 155.952 114.269C157.786 116.285 159.958 117.964 162.37 119.231C164.449 120.26 166.741 120.786 169.06 120.768C171.925 120.757 174.755 120.136 177.361 118.945C179.966 117.754 182.288 116.021 184.171 113.861L193.701 125.262C190.779 128.914 187.033 131.821 182.771 133.745Z" fill="white"/>
</g>
<defs>
<linearGradient id="paint0_linear_289_4" x1="109.316" y1="68.9366" x2="167.349" y2="68.9366" gradientUnits="userSpaceOnUse">
<stop offset="1" stop-color="white"/>
</linearGradient>
<clipPath id="clip0_289_4">
<rect width="270" height="275" fill="white"/>
</clipPath>
</defs>
</svg>
