<svg width="45" height="46" viewBox="0 0 45 46" fill="none" xmlns="http://www.w3.org/2000/svg">
<g clip-path="url(#clip0_62_2)">
<path d="M2.82605 45.4357C1.76508 45.1587 0.76408 44.6864 -0.126465 44.0427L1.1685 41.1261C1.94129 41.6831 2.7984 42.1106 3.70663 42.3919C4.65646 42.7066 5.64959 42.8684 6.64943 42.8714C7.74368 42.8714 8.55087 42.7083 9.07101 42.3821C9.30632 42.2561 9.50339 42.0682 9.64132 41.8385C9.77925 41.6087 9.85291 41.3456 9.85447 41.0771C9.85544 40.8894 9.81431 40.7038 9.73415 40.5344C9.65398 40.3649 9.53686 40.2159 9.39152 40.0984C9.04184 39.8107 8.63915 39.5956 8.20662 39.4655C7.72101 39.3056 7.07029 39.1392 6.24799 38.937C5.19405 38.697 4.15517 38.3941 3.13684 38.03C2.33311 37.7193 1.62195 37.206 1.07138 36.5391C0.462327 35.7857 0.153074 34.831 0.203751 33.8607C0.194859 32.9204 0.467928 31.9994 0.987203 31.2181C1.58016 30.382 2.40111 29.7371 3.35051 29.3618C4.57486 28.8661 5.88732 28.6296 7.20627 28.6669C8.25331 28.6611 9.2971 28.7849 10.3142 29.0356C11.252 29.2604 12.149 29.6325 12.9721 30.1383L11.7872 33.0744C10.392 32.242 8.80486 31.7921 7.1836 31.7695C6.10555 31.7695 5.31238 31.9456 4.79763 32.2947C4.56057 32.4391 4.36488 32.6431 4.22978 32.8868C4.09469 33.1305 4.02485 33.4054 4.02713 33.6845C4.02624 33.9642 4.11136 34.2374 4.27078 34.4664C4.4302 34.6954 4.6561 34.869 4.91742 34.9634C5.79271 35.3306 6.70279 35.6071 7.63361 35.7887C8.68623 36.0298 9.72397 36.3326 10.7415 36.6957C11.541 36.9945 12.2549 37.4876 12.8199 38.1312C13.4256 38.8748 13.7339 39.8195 13.6843 40.7802C13.6901 41.7114 13.4134 42.622 12.8912 43.3902C12.2922 44.2344 11.4635 44.8859 10.5052 45.2661C9.27104 45.7631 7.9488 45.9996 6.6203 45.9609C5.33729 45.9671 4.05987 45.7903 2.82605 45.4357Z" fill="white"/>
<path d="M29.1853 42.578V45.674H16.3198V28.9443H28.8745V32.0534H20.1335V35.691H27.8418V38.7022H20.14V42.578H29.1853Z" fill="white"/>
<path d="M45.1101 42.578V45.674H32.2446V28.9443H44.8025V32.0534H36.0615V35.691H43.773V38.7022H36.068V42.578H45.1101Z" fill="white"/>
<path d="M27.0516 14.3352C27.48 13.5411 27.6964 12.6485 27.6797 11.7449C27.6942 10.8456 27.4778 9.95779 27.0516 9.16756C26.6483 8.42757 26.0486 7.81531 25.3196 7.39933C24.5613 6.98473 23.7122 6.76758 22.8495 6.76758C21.9867 6.76758 21.1376 6.98473 20.3793 7.39933C19.6496 7.81434 19.0496 8.42684 18.6473 9.16756C18.2211 9.95779 18.0048 10.8456 18.0192 11.7449C18.0048 12.6441 18.2211 13.5319 18.6473 14.3222C19.0521 15.0699 19.658 15.6873 20.3955 16.1034C21.1538 16.518 22.0029 16.7352 22.8656 16.7352C23.7284 16.7352 24.5775 16.518 25.3358 16.1034C26.0588 15.6851 26.6527 15.073 27.0516 14.3352Z" fill="white"/>
<path d="M42.1479 11.4183C40.5213 9.22306 38.6117 7.25593 36.4695 5.56881C31.7559 1.92144 26.5048 0.0618627 20.4994 0.694771C18.4142 0.912073 16.3739 1.4478 14.4487 2.28357C9.8645 4.2769 6.25802 7.50342 3.26666 11.4607C3.03607 11.7459 2.91016 12.1026 2.91016 12.4704C2.91016 12.8383 3.03607 13.195 3.26666 13.4802C5.82745 16.8959 8.87385 19.7668 12.6422 21.7895C16.5261 23.9422 20.9879 24.7966 25.3846 24.2298C27.8383 23.909 30.2171 23.157 32.413 22.0081C35.5831 20.3478 38.4015 18.0805 40.7105 15.3332C41.358 14.5796 42.0476 13.8553 42.4976 12.9517V12.0121C42.4002 11.8033 42.2832 11.6045 42.1479 11.4183ZM30.2505 22.628C29.5111 22.9596 28.7094 23.1265 27.9001 23.1173C26.8177 23.1315 25.7487 22.8748 24.789 22.3702C23.6023 21.6625 22.531 20.7744 21.6131 19.7375C20.2804 19.5822 19.0015 19.1177 17.8771 18.3803C16.8007 17.6769 15.9195 16.7091 15.3163 15.5681C14.6983 14.3909 14.3833 13.0762 14.4001 11.7446C14.3827 10.299 14.7614 8.87664 15.4944 7.63392C16.2198 6.41341 17.2649 5.41785 18.5149 4.75647C19.8561 4.07016 21.3391 3.71247 22.8433 3.71247C24.3475 3.71247 25.8305 4.07016 27.1717 4.75647C28.4325 5.4239 29.4852 6.43011 30.2132 7.66357C30.9412 8.89703 31.316 10.3096 31.2961 11.7446C31.3296 13.4592 30.7979 15.1366 29.7843 16.5142C28.787 17.8711 27.3829 18.8685 25.7796 19.359C26.093 19.6984 26.4621 19.9809 26.8706 20.1942C27.2173 20.3646 27.5985 20.4517 27.9843 20.4487C28.4604 20.4471 28.9307 20.3433 29.3639 20.1441C29.7971 19.945 30.1832 19.6551 30.4965 19.2938L32.0699 21.2056C31.5818 21.8162 30.9587 22.3033 30.2505 22.628Z" fill="white"/>
</g>
<defs>
<clipPath id="clip0_62_2">
<rect width="45" height="46" fill="white"/>
</clipPath>
</defs>
</svg>
