<svg width="56" height="56" viewBox="0 0 56 56" fill="none" xmlns="http://www.w3.org/2000/svg">
<path d="M54.141 0.378174C54.9479 0.775379 55.2583 1.41158 55.2566 2.32212C55.2376 11.8135 55.2337 21.3033 55.2449 30.7913C55.2449 32.1597 54.6577 32.7538 53.3072 32.7538H34.6849C33.3343 32.7538 32.7488 32.1597 32.7488 30.7913C32.7488 21.3022 32.7449 11.8124 32.7371 2.32212C32.7371 1.41158 33.0458 0.775379 33.8527 0.378174H54.141ZM44.0413 3.62987C43.5263 3.62987 43.0112 3.61473 42.4962 3.62987C41.5567 3.6669 40.847 4.34855 40.8453 5.19177C40.8436 6.03499 41.555 6.73178 42.4911 6.75366C43.486 6.77891 44.4825 6.77554 45.4774 6.75366C46.4421 6.73515 47.1735 6.0232 47.1551 5.16652C47.1366 4.30983 46.4303 3.65175 45.4774 3.62819C45.0093 3.61641 44.5295 3.62987 44.048 3.62987H44.0413ZM45.5512 27.883C45.5512 27.4696 45.3875 27.0732 45.0962 26.7809C44.8049 26.4886 44.4097 26.3244 43.9977 26.3244C43.5857 26.3244 43.1905 26.4886 42.8992 26.7809C42.6078 27.0732 42.4442 27.4696 42.4442 27.883C42.4341 28.6976 43.2192 29.4752 44.0262 29.4533C44.4303 29.4286 44.8109 29.2543 45.0942 28.9642C45.3775 28.6741 45.5433 28.2888 45.5596 27.883H45.5512Z" fill="white"/>
<path d="M0.564021 53.0619C2.23164 49.7294 3.911 46.4036 5.55178 43.0577C5.82524 42.5023 6.13561 42.3003 6.76307 42.3003C20.8556 42.3205 34.9443 42.3205 49.029 42.3003C49.6263 42.3003 49.9417 42.4686 50.2034 43.019C51.7737 46.2404 53.391 49.4399 54.9831 52.6495C55.4378 53.5634 55.2935 54.3898 54.604 54.9099C54.3021 55.1372 53.9327 55.2558 53.5554 55.2465C49.0368 55.2465 44.5188 55.2465 40.0014 55.2465C39.6038 55.2465 39.4444 55.0984 39.3521 54.7214C38.7347 52.1968 38.0972 49.6722 37.4647 47.1476C37.1778 45.9997 36.6846 45.6075 35.5002 45.6075C30.4302 45.6075 25.3602 45.6075 20.2902 45.6075C19.084 45.6075 18.5874 46.0014 18.2938 47.1778C17.6747 49.652 17.0473 52.1227 16.4483 54.6019C16.3326 55.0883 16.1329 55.2566 15.6213 55.2549C11.2458 55.2336 6.86988 55.2336 2.49336 55.2549C1.58741 55.2549 0.949889 54.9469 0.553955 54.134L0.564021 53.0619Z" fill="white"/>
<path d="M27.8919 39.1731C21.1678 39.1731 14.4442 39.1731 7.72113 39.1731C6.93262 39.1731 6.93262 39.1731 6.93262 38.3871C6.93262 30.6954 6.93262 23.0049 6.93262 15.3155C6.93262 13.996 7.53491 13.4001 8.86196 13.4001C15.5324 13.4001 22.2024 13.4001 28.8717 13.4001C29.6334 13.4001 29.6351 13.4001 29.6351 14.1592C29.6351 19.673 29.6351 25.1867 29.6351 30.7005C29.6351 31.9459 29.9035 33.1039 30.7172 34.0919C31.7691 35.371 33.1532 35.886 34.7654 35.886H48.0527C48.8446 35.886 48.8446 35.886 48.8462 36.6703C48.8462 37.3301 48.8295 37.9899 48.8462 38.6496C48.858 39.0418 48.7154 39.1865 48.3211 39.1798C47.3263 39.1613 46.3297 39.1798 45.3332 39.1798L27.8919 39.1731Z" fill="white"/>
<path d="M27.8366 55.2414H20.1024C19.47 55.2414 19.4666 55.2414 19.6226 54.6069C20.0588 52.843 20.5068 51.0808 20.9279 49.3136C21.0268 48.9012 21.1996 48.7312 21.6493 48.7329C25.8099 48.7498 29.97 48.7498 34.1296 48.7329C34.5356 48.7329 34.7403 48.8541 34.8376 49.2597C35.2754 51.0791 35.7217 52.8952 36.1931 54.7062C36.3156 55.1808 36.1394 55.2481 35.7301 55.2464C33.0995 55.2346 30.4672 55.2414 27.8366 55.2414Z" fill="white"/>
</svg>
