<svg width="49" height="44" viewBox="0 0 49 44" fill="none" xmlns="http://www.w3.org/2000/svg">
<path d="M0.977539 20.9722C1.16957 19.6374 1.35346 18.3026 1.73914 17.005C2.60382 14.0105 4.12944 11.2461 6.20461 8.91354C9.57866 5.13374 13.774 2.82266 18.7906 1.98031C19.3276 1.89121 19.8728 1.841 20.4179 1.78268C21.5034 1.66605 22.1527 2.24112 22.1543 3.3297C22.1543 9.47565 22.1516 15.6216 22.1462 21.7676C22.1322 22.0908 22.1883 22.4132 22.3108 22.7128C22.4332 23.0125 22.6191 23.2824 22.8557 23.5041C27.2235 27.8239 31.5816 32.1555 35.9299 36.4991C36.3546 36.9202 36.6166 37.3738 36.462 37.991C36.3718 38.3066 36.1803 38.5842 35.9169 38.7815C32.628 41.5532 28.8607 43.2654 24.5693 43.7223C17.409 44.4836 11.3503 42.2012 6.45847 36.9883C3.27374 33.5962 1.50155 29.5107 1.03612 24.8794C1.02222 24.7881 1.00266 24.6978 0.977539 24.6089V20.9722Z" fill="white"/>
<path d="M35.1727 21.1877C32.1806 21.1877 29.1873 21.1877 26.193 21.1877C25.145 21.1877 24.6828 20.7713 24.5786 19.7297C24.5575 19.5143 24.5591 19.2972 24.5591 19.0818V2.18607C24.5591 2.06134 24.5591 1.93823 24.5591 1.81349C24.5949 0.517563 25.1629 0.052648 26.455 0.159562C29.9354 0.455522 33.2879 1.60525 36.2129 3.506C39.1379 5.40674 41.5442 7.99927 43.2167 11.0519C44.4073 13.2212 45.2044 15.5824 45.5715 18.0272C45.6545 18.5618 45.7001 19.1045 45.7343 19.6471C45.7994 20.5996 45.2542 21.186 44.2941 21.1877C41.2531 21.192 38.2126 21.192 35.1727 21.1877Z" fill="white"/>
<path d="M39.2383 23.8428C41.9039 23.8428 44.57 23.8428 47.2367 23.8428C48.4605 23.8428 49.0138 24.4665 48.8901 25.6587C48.7027 27.6992 48.2351 29.7044 47.5004 31.6184C46.6051 33.8587 45.3401 35.9343 43.7574 37.7595C43.6416 37.9025 43.4975 38.0203 43.3342 38.1058C43.1709 38.1913 42.9917 38.2426 42.8077 38.2565C42.6237 38.2705 42.4388 38.2468 42.2643 38.187C42.0898 38.1271 41.9295 38.0324 41.7932 37.9085C41.6979 37.8283 41.6072 37.7428 41.5215 37.6526L30.2097 26.3958C29.9976 26.2114 29.8253 25.986 29.7036 25.7332C29.3277 24.8083 29.9819 23.8801 31.0576 23.8509C31.8712 23.8282 32.6849 23.8509 33.4888 23.8509L39.2383 23.8428Z" fill="white"/>
</svg>
