<svg width="61" height="39" viewBox="0 0 61 39" fill="none" xmlns="http://www.w3.org/2000/svg">
<path d="M60.8695 32.5814C59.9384 34.3068 58.713 35.7787 57.0203 36.8166C55.4666 37.8081 53.6655 38.3421 51.8228 38.3575C37.8821 38.3575 23.9415 38.3966 10.0008 38.3351C6.02678 38.3165 3.08073 36.3284 1.14959 32.8702C0.522019 31.7523 1.12911 30.7853 2.41777 30.7853C21.4125 30.7853 40.403 30.7822 59.389 30.776C59.6809 30.7584 59.9723 30.818 60.2338 30.9488C60.4953 31.0796 60.7178 31.2771 60.8788 31.5213L60.8695 32.5814Z" fill="white"/>
<path d="M30.9102 28.3966H6.97871C5.99359 28.3966 6.00476 28.3966 6.14257 27.4053C6.9005 21.9703 9.18732 17.2693 13.0086 13.351C16.7331 9.53878 21.2397 7.16688 26.4837 6.19986C26.5968 6.17082 26.712 6.15088 26.8282 6.14024C27.305 6.14024 27.3217 5.89802 27.2323 5.49183C26.8785 3.89318 27.331 2.52929 28.6439 1.55296C29.9568 0.576623 31.3944 0.530042 32.8284 1.3126C33.5232 1.70429 34.0726 2.31064 34.3942 3.04086C34.7158 3.77108 34.7923 4.58588 34.6124 5.36327C34.4634 5.94833 34.6291 6.08434 35.1524 6.1775C41.5175 7.30476 46.6982 10.4369 50.6797 15.5104C53.4991 19.1083 55.1342 23.2205 55.7338 27.75C55.8102 28.3388 55.7338 28.3966 54.9647 28.3966H30.9102ZM12.0887 24.426C12.0887 25.0931 12.3736 25.4527 12.8838 25.6408C13.3941 25.829 13.8001 25.6632 14.139 25.2812C14.3137 25.0463 14.4449 24.7818 14.5263 24.5005C16.3104 19.9903 19.411 16.7321 23.8282 14.726C25.6904 13.882 27.6625 13.4572 29.6905 13.2466C30.4354 13.1684 30.8823 12.6485 30.8358 12.0206C30.7855 11.3573 30.2603 10.9325 29.4894 10.9399C28.8075 10.9536 28.1284 11.0322 27.4614 11.1747C20.1664 12.628 15.1136 16.8004 12.3028 23.6919C12.1871 23.9214 12.1145 24.1703 12.0887 24.426Z" fill="white"/>
</svg>
