<svg width="41" height="41" viewBox="0 0 41 41" fill="none" xmlns="http://www.w3.org/2000/svg">
<path d="M22.5221 0.198306C24.0077 0.192605 25.4933 0.207536 26.9784 0.243093L27.3734 0.257344C27.8294 0.27363 28.2793 0.293988 28.8229 0.318417C30.9889 0.420206 32.4669 0.762219 33.7637 1.26506C35.1073 1.78215 36.2392 2.48246 37.3711 3.61436C38.4061 4.63145 39.207 5.86176 39.7184 7.21974C40.2212 8.51653 40.5632 9.99655 40.665 12.1626C40.6894 12.7041 40.7098 13.1561 40.7261 13.6121L40.7383 14.0071C40.7745 15.4915 40.7901 16.9764 40.7851 18.4614L40.7872 19.9801V22.6469C40.7922 24.1325 40.7766 25.6181 40.7403 27.1033L40.7281 27.4982C40.7118 27.9542 40.6915 28.4041 40.667 28.9477C40.5653 31.1138 40.2192 32.5918 39.7184 33.8885C39.2087 35.248 38.4075 36.4793 37.3711 37.496C36.3531 38.5308 35.1222 39.3317 33.7637 39.8432C32.4669 40.3461 30.9889 40.6881 28.8229 40.7899C28.2793 40.8143 27.8294 40.8347 27.3734 40.8509L26.9784 40.8632C25.4933 40.8993 24.0077 40.915 22.5221 40.91L21.0034 40.912H18.3386C16.853 40.917 15.3674 40.9014 13.8822 40.8652L13.4873 40.853C13.004 40.8355 12.5209 40.8151 12.0378 40.7919C9.87175 40.6901 8.39377 40.344 7.09494 39.8432C5.73643 39.3329 4.50591 38.5318 3.48957 37.496C2.45345 36.4787 1.65171 35.2476 1.14027 33.8885C0.637435 32.5918 0.295423 31.1138 0.193634 28.9477C0.170961 28.4646 0.150603 27.9815 0.132561 27.4982L0.122382 27.1033C0.0848494 25.6181 0.0678827 24.1325 0.0714871 22.6469V18.4614C0.0658053 16.9765 0.080736 15.4915 0.116275 14.0071L0.130525 13.6121C0.146811 13.1561 0.167169 12.7041 0.191598 12.1626C0.293388 9.99451 0.635399 8.51857 1.13824 7.21974C1.64998 5.86109 2.45328 4.63112 3.4916 3.61639C4.50724 2.57967 5.73699 1.77721 7.09494 1.26506C8.39377 0.762219 9.86971 0.420206 12.0378 0.318417L13.4873 0.257344L13.8822 0.247165C15.3667 0.209651 16.8516 0.192684 18.3365 0.19627L22.5221 0.198306ZM20.4293 10.3772C19.0806 10.3582 17.7416 10.6073 16.49 11.1103C15.2385 11.6132 14.0994 12.3599 13.1389 13.3069C12.1784 14.2539 11.4157 15.3823 10.8951 16.6266C10.3745 17.871 10.1065 19.2063 10.1065 20.5552C10.1065 21.904 10.3745 23.2394 10.8951 24.4837C11.4157 25.728 12.1784 26.8565 13.1389 27.8035C14.0994 28.7505 15.2385 29.4971 16.49 30.0001C17.7416 30.503 19.0806 30.7522 20.4293 30.7331C23.1289 30.7331 25.718 29.6607 27.6269 27.7517C29.5358 25.8428 30.6082 23.2538 30.6082 20.5541C30.6082 17.8545 29.5358 15.2655 27.6269 13.3565C25.718 11.4476 23.1289 10.3772 20.4293 10.3772ZM20.4293 14.4488C21.2406 14.4339 22.0467 14.5807 22.8006 14.8808C23.5545 15.1809 24.241 15.6282 24.8201 16.1966C25.3991 16.765 25.8591 17.4431 26.1732 18.1913C26.4872 18.9395 26.649 19.7427 26.6492 20.5541C26.6493 21.3655 26.4878 22.1688 26.174 22.9171C25.8602 23.6654 25.4004 24.3436 24.8215 24.9122C24.2426 25.4808 23.5563 25.9284 22.8025 26.2287C22.0487 26.5291 21.2426 26.6762 20.4314 26.6615C18.8116 26.6615 17.2582 26.0181 16.1128 24.8727C14.9675 23.7274 14.324 22.1739 14.324 20.5541C14.324 18.9344 14.9675 17.3809 16.1128 16.2356C17.2582 15.0902 18.8116 14.4468 20.4314 14.4468L20.4293 14.4488ZM31.1172 7.32356C30.4604 7.34985 29.8393 7.62924 29.3839 8.10321C28.9285 8.57718 28.6742 9.20897 28.6742 9.86626C28.6742 10.5235 28.9285 11.1553 29.3839 11.6293C29.8393 12.1033 30.4604 12.3827 31.1172 12.409C31.7921 12.409 32.4394 12.1409 32.9166 11.6636C33.3938 11.1864 33.6619 10.5391 33.6619 9.86422C33.6619 9.18932 33.3938 8.54206 32.9166 8.06483C32.4394 7.5876 31.7921 7.31949 31.1172 7.31949V7.32356Z" fill="white"/>
</svg>
