<svg width="40" height="32" viewBox="0 0 40 32" fill="none" xmlns="http://www.w3.org/2000/svg">
<path d="M39.1545 7.23682V25.435C39.1545 26.9063 38.5924 28.322 37.5831 29.3924C36.5738 30.4629 35.1935 31.1071 33.7248 31.1935L33.3864 31.2031H6.46875C4.99749 31.2032 3.5818 30.641 2.51136 29.6317C1.44091 28.6224 0.796611 27.2421 0.710297 25.7734L0.700684 25.435V7.23682L18.8605 19.344L19.0835 19.4709C19.3464 19.5993 19.635 19.666 19.9276 19.666C20.2201 19.666 20.5088 19.5993 20.7716 19.4709L20.9947 19.344L39.1545 7.23682Z" fill="white"/>
<path d="M33.3867 0.44043C35.4632 0.44043 37.284 1.53636 38.2992 3.1841L19.9279 15.4316L1.55664 3.1841C2.03872 2.40112 2.70105 1.74478 3.48838 1.26984C4.27571 0.794903 5.1652 0.515138 6.08264 0.453888L6.4691 0.44043H33.3867Z" fill="white"/>
</svg>
