<svg width="74" height="58" viewBox="0 0 74 58" fill="none" xmlns="http://www.w3.org/2000/svg">
<g clip-path="url(#clip0_58_224)">
<path d="M13.3979 57.5344V53.7606C13.3979 52.317 12.5101 51.3717 10.9861 51.3717C10.2241 51.3717 9.39549 51.6209 8.82583 52.4416C8.38194 51.7528 7.74569 51.3717 6.79133 51.3717C6.15508 51.3717 5.51884 51.5622 5.01576 52.251V51.4963H3.68408V57.5344H5.01576V54.2002C5.01576 53.1304 5.58542 52.6248 6.4732 52.6248C7.36099 52.6248 7.80488 53.189 7.80488 54.2002V57.5344H9.13655V54.2002C9.13655 53.1304 9.7728 52.6248 10.594 52.6248C11.4818 52.6248 11.9257 53.189 11.9257 54.2002V57.5344H13.3979ZM33.1511 51.4963H30.9908V49.6717H29.6592V51.4963H28.4532V52.6907H29.6592V55.4606C29.6592 56.8456 30.2288 57.659 31.7528 57.659C32.3225 57.659 32.9588 57.4684 33.4026 57.2193L33.0179 56.0835C32.6332 56.3326 32.1893 56.3986 31.8712 56.3986C31.235 56.3986 30.9834 56.0175 30.9834 55.3947V52.6907H33.1437V51.4963H33.1511ZM44.4556 51.3644C43.6935 51.3644 43.1831 51.7454 42.8649 52.2437V51.489H41.5333V57.5271H42.8649V54.127C42.8649 53.1231 43.3088 52.5515 44.1374 52.5515C44.389 52.5515 44.7071 52.6174 44.966 52.6761L45.3507 51.4157C45.0844 51.3644 44.7071 51.3644 44.4556 51.3644ZM27.3731 51.9946C26.7369 51.5549 25.8491 51.3644 24.8947 51.3644C23.3707 51.3644 22.3571 52.1191 22.3571 53.3136C22.3571 54.3175 23.1191 54.8891 24.4508 55.0722L25.0871 55.1382C25.7825 55.2628 26.1672 55.4533 26.1672 55.7684C26.1672 56.2081 25.6567 56.5232 24.7689 56.5232C23.8812 56.5232 23.1783 56.2081 22.7344 55.893L22.0982 56.8969C22.7936 57.4025 23.748 57.6516 24.7024 57.6516C26.4779 57.6516 27.4989 56.8309 27.4989 55.7024C27.4989 54.6326 26.6703 54.0683 25.4052 53.8778L24.7689 53.8119C24.1993 53.7459 23.7554 53.6213 23.7554 53.2476C23.7554 52.808 24.1993 52.5588 24.9021 52.5588C25.6641 52.5588 26.4261 52.8739 26.8108 53.0644L27.3731 51.9946ZM62.8031 51.3644C62.0411 51.3644 61.5306 51.7454 61.2125 52.2437V51.489H59.8808V57.5271H61.2125V54.127C61.2125 53.1231 61.6564 52.5515 62.485 52.5515C62.7365 52.5515 63.0546 52.6174 63.3136 52.6761L63.6983 51.4303C63.4393 51.3644 63.062 51.3644 62.8031 51.3644ZM45.7872 54.5153C45.7872 56.34 47.0597 57.659 49.0276 57.659C49.9154 57.659 50.5517 57.4684 51.1879 56.9701L50.5517 55.9003C50.0412 56.2813 49.5381 56.4645 48.9611 56.4645C47.8809 56.4645 47.1189 55.7098 47.1189 54.5153C47.1189 53.3795 47.8809 52.6248 48.9611 52.5661C49.5307 52.5661 50.0412 52.7567 50.5517 53.1304L51.1879 52.0605C50.5517 51.5549 49.9154 51.3717 49.0276 51.3717C47.0597 51.3644 45.7872 52.6907 45.7872 54.5153ZM58.1052 54.5153V51.4963H56.7736V52.251C56.3297 51.6868 55.6934 51.3717 54.8648 51.3717C53.1484 51.3717 51.8168 52.6907 51.8168 54.5153C51.8168 56.34 53.1484 57.659 54.8648 57.659C55.7526 57.659 56.3888 57.3439 56.7736 56.7796V57.5344H58.1052V54.5153ZM53.215 54.5153C53.215 53.4455 53.9104 52.5661 55.0572 52.5661C56.1373 52.5661 56.8993 53.3869 56.8993 54.5153C56.8993 55.5852 56.1373 56.4645 55.0572 56.4645C53.9178 56.3986 53.215 55.5779 53.215 54.5153ZM37.2793 51.3644C35.5037 51.3644 34.2312 52.6248 34.2312 54.508C34.2312 56.3986 35.5037 57.6516 37.3459 57.6516C38.2337 57.6516 39.1214 57.4025 39.8243 56.8309L39.188 55.8856C38.6776 56.2667 38.0413 56.5158 37.4125 56.5158C36.5839 56.5158 35.7627 56.1348 35.5703 55.0722H40.0758C40.0758 54.8817 40.0758 54.7572 40.0758 54.5666C40.135 52.6248 38.9883 51.3644 37.2793 51.3644ZM37.2793 52.5002C38.1079 52.5002 38.6776 53.0058 38.8033 53.9438H35.6295C35.7553 53.1304 36.3249 52.5002 37.2793 52.5002ZM70.364 54.5153V49.1074H69.0324V52.251C68.5885 51.6868 67.9522 51.3717 67.1236 51.3717C65.4072 51.3717 64.0756 52.6907 64.0756 54.5153C64.0756 56.34 65.4072 57.659 67.1236 57.659C68.0114 57.659 68.6477 57.3439 69.0324 56.7796V57.5344H70.364V54.5153ZM65.4738 54.5153C65.4738 53.4455 66.1693 52.5661 67.316 52.5661C68.3961 52.5661 69.1581 53.3869 69.1581 54.5153C69.1581 55.5852 68.3961 56.4645 67.316 56.4645C66.1693 56.3986 65.4738 55.5779 65.4738 54.5153ZM20.8923 54.5153V51.4963H19.5606V52.251C19.1167 51.6868 18.4805 51.3717 17.6519 51.3717C15.9355 51.3717 14.6038 52.6907 14.6038 54.5153C14.6038 56.34 15.9355 57.659 17.6519 57.659C18.5397 57.659 19.1759 57.3439 19.5606 56.7796V57.5344H20.8923V54.5153ZM15.9429 54.5153C15.9429 53.4455 16.6383 52.5661 17.785 52.5661C18.8652 52.5661 19.6272 53.3869 19.6272 54.5153C19.6272 55.5852 18.8652 56.4645 17.785 56.4645C16.6383 56.3986 15.9429 55.5779 15.9429 54.5153Z" fill="white"/>
<path d="M46.9339 5.63916H26.9292V41.2376H46.9339V5.63916Z" fill="#FF5A00"/>
<path d="M28.2611 23.4383C28.2611 16.2058 31.6939 9.78661 36.9614 5.63908C33.0847 2.62003 28.1945 0.79541 22.8604 0.79541C10.2243 0.79541 0 10.9224 0 23.4383C0 35.9542 10.2243 46.0812 22.8604 46.0812C28.1945 46.0812 33.0847 44.2566 36.9614 41.2375C31.6865 37.1486 28.2611 30.6708 28.2611 23.4383Z" fill="#EB001B"/>
<path d="M73.9228 23.4383C73.9228 35.9542 63.6985 46.0812 51.0624 46.0812C45.7283 46.0812 40.8381 44.2566 36.9614 41.2375C42.2955 37.0827 45.6617 30.6708 45.6617 23.4383C45.6617 16.2058 42.2289 9.78661 36.9614 5.63908C40.8307 2.62003 45.7209 0.79541 51.055 0.79541C63.6985 0.79541 73.9228 10.9884 73.9228 23.4383Z" fill="#F79E1B"/>
</g>
<defs>
<clipPath id="clip0_58_224">
<rect width="73.9228" height="56.8637" fill="white" transform="translate(0 0.79541)"/>
</clipPath>
</defs>
</svg>
