<svg width="33" height="58" viewBox="0 0 33 58" fill="none" xmlns="http://www.w3.org/2000/svg">
<path d="M16.4947 47.5742H31.2417C32.0462 47.5742 32.048 47.5742 32.0498 48.3733C32.0498 49.4606 32.0498 50.5588 32.0498 51.6516C32.0209 54.7486 29.448 57.3581 26.3641 57.3653C19.77 57.3835 13.1759 57.3835 6.58175 57.3653C3.50152 57.3653 0.921371 54.7486 0.890569 51.6552C0.890569 50.5425 0.917747 49.4298 0.876074 48.3172C0.854331 47.7318 1.05726 47.5597 1.63164 47.5633C6.58175 47.5832 11.5391 47.5742 16.4947 47.5742ZM19.323 52.4906C19.3412 50.9466 18.0656 49.6636 16.4675 49.6183C14.9908 49.5766 13.621 50.9212 13.6119 52.4235C13.6117 53.1795 13.9066 53.9057 14.434 54.4473C14.9613 54.989 15.6793 55.3032 16.4349 55.323C17.9623 55.3629 19.3049 54.0346 19.323 52.4906Z" fill="white"/>
<path d="M16.4658 6.86H1.72054C0.865318 6.86 0.785594 6.76214 0.930546 5.9068C1.14583 4.51264 1.85758 3.24326 2.9347 2.33249C4.01181 1.42172 5.38172 0.930917 6.79205 0.950505C13.2448 0.943256 19.697 0.943256 26.1486 0.950505C27.5591 0.931284 28.929 1.42304 30.0053 2.33499C31.0816 3.24695 31.7918 4.51754 32.0047 5.91223C32.1478 6.76395 32.0681 6.86 31.2093 6.86181L16.4658 6.86ZM16.5274 2.98014C15.5762 2.98014 14.6249 2.9602 13.6755 2.98014C13.0649 2.99826 12.6554 3.40056 12.6554 3.8971C12.6554 4.39363 13.0667 4.80318 13.6755 4.80318C15.5363 4.82493 17.3989 4.81587 19.2598 4.80318C19.423 4.81 19.5855 4.77595 19.7323 4.70411C19.8791 4.63228 20.0056 4.52494 20.1005 4.39182C20.1945 4.27149 20.2528 4.12718 20.2688 3.97532C20.2848 3.82346 20.2579 3.67015 20.1911 3.53285C20.1079 3.36037 19.9757 3.21626 19.811 3.11859C19.6463 3.02092 19.4564 2.97402 19.2652 2.98376C18.3484 2.96745 17.437 2.97833 16.5274 2.98014Z" fill="white"/>
<path d="M16.4893 53.4909C16.2884 53.4956 16.0906 53.4402 15.9214 53.3317C15.7521 53.2233 15.6191 53.0668 15.5394 52.8823C15.4596 52.6978 15.4368 52.4937 15.4738 52.2961C15.5108 52.0985 15.6059 51.9165 15.7469 51.7733C15.888 51.6301 16.0686 51.5323 16.2656 51.4925C16.4626 51.4526 16.667 51.4725 16.8526 51.5495C17.0383 51.6266 17.1967 51.7573 17.3075 51.925C17.4184 52.0926 17.4767 52.2896 17.475 52.4906C17.4774 52.6214 17.4536 52.7514 17.4051 52.8729C17.3566 52.9944 17.2844 53.105 17.1925 53.1981C17.1007 53.2913 16.9912 53.3652 16.8705 53.4155C16.7497 53.4658 16.6201 53.4914 16.4893 53.4909Z" fill="white"/>
<path d="M19.9283 23.9958C19.7206 23.8887 19.4831 23.8538 19.2534 23.8968C19.0237 23.9398 18.8149 24.0582 18.66 24.2332C17.7305 25.1392 16.8136 26.0707 15.8914 26.9913C14.9691 27.9119 14.9583 27.9246 13.9907 27.0456C13.4471 26.5564 12.7894 26.502 12.3745 26.9134C11.9596 27.3247 11.9994 28.0333 12.5285 28.5806C12.9972 29.0638 13.4743 29.5416 13.9599 30.014C14.6539 30.6881 15.1974 30.708 15.8968 30.0249C17.2938 28.6585 18.6636 27.2667 20.0479 25.8877C20.187 25.7673 20.2978 25.6176 20.3724 25.4494C20.4469 25.2811 20.4834 25.0985 20.4791 24.9145C20.4938 24.7232 20.4487 24.532 20.35 24.3674C20.2513 24.2028 20.104 24.0729 19.9283 23.9958Z" fill="white"/>
<path d="M31.2237 8.71753H1.72235C0.887065 8.71753 0.885254 8.71753 0.885254 9.54932C0.885254 15.4171 0.885254 21.2849 0.885254 27.1528C0.885254 33.0629 0.885254 38.9712 0.885254 44.8776C0.885254 45.713 0.885253 45.7167 1.71692 45.7167H31.2129C32.0463 45.7167 32.0499 45.7167 32.0499 44.8831V9.55475C32.0499 8.73021 32.0481 8.71753 31.2237 8.71753ZM16.2918 37.223C10.8217 37.223 6.26841 32.6563 6.27747 27.1872C6.28653 21.7616 10.7873 17.1985 16.2665 17.2202C21.8834 17.2329 26.279 21.6492 26.3044 27.2814C26.3316 32.7143 21.7294 37.2248 16.2864 37.223H16.2918Z" fill="white"/>
</svg>
