<svg width="46" height="47" viewBox="0 0 46 47" fill="none" xmlns="http://www.w3.org/2000/svg">
<path d="M0.0317383 35.2068V4.0225C0.0827399 3.88268 0.138523 3.74604 0.191118 3.60464C0.442186 2.78859 0.949269 2.07439 1.63781 1.56702C2.32635 1.05966 3.16002 0.785907 4.01624 0.78602C8.66377 0.775428 13.3102 0.775428 17.9556 0.78602C18.8505 0.788512 19.7181 1.09367 20.4164 1.65157C21.1148 2.20948 21.6025 2.98711 21.7999 3.85726C22.1282 5.32218 22.2159 6.82205 22.4087 8.30603C22.7275 10.8069 23.0303 13.3093 23.3411 15.8102C23.6599 18.3523 23.9786 20.8976 24.2974 23.4462L25.2313 30.9964C25.4768 32.9665 25.7318 34.9383 25.9677 36.91C25.994 37.1062 25.9771 37.3056 25.9181 37.4946C25.859 37.6835 25.7593 37.8573 25.6259 38.0037C25.4925 38.1502 25.3285 38.2659 25.1456 38.3426C24.9626 38.4194 24.7651 38.4554 24.5667 38.448H19.959C14.6867 38.448 9.41498 38.448 4.14375 38.448C3.49322 38.4637 2.84848 38.323 2.26398 38.0379C1.67949 37.7528 1.17242 37.3316 0.785607 36.8099C0.411064 36.3333 0.235745 35.7629 0.0317383 35.2068ZM12.1287 10.3842C11.7573 10.3842 11.3844 10.3763 11.013 10.3842C10.0854 10.4033 9.62483 10.7926 9.44154 11.703C9.06647 13.5619 8.69193 15.4219 8.31791 17.283C7.81905 19.7839 7.31541 22.2831 6.83408 24.7856C6.7952 24.964 6.79535 25.1487 6.83451 25.3271C6.87368 25.5055 6.95094 25.6734 7.06105 25.8193C7.17115 25.9653 7.31151 26.0859 7.47257 26.1729C7.63363 26.2599 7.8116 26.3113 7.99437 26.3236C8.65739 26.3855 9.21522 25.912 9.3746 25.1351C9.62324 23.9149 9.87028 22.693 10.0998 21.4696C10.1635 21.1407 10.2974 20.993 10.6576 20.993C11.6394 21.0136 12.6228 21.0152 13.6046 20.993C13.9855 20.9834 14.1225 21.1392 14.1879 21.4887C14.4254 22.7407 14.666 23.9927 14.9402 25.2384C15.0995 26.0074 15.7482 26.4316 16.4479 26.2886C17.1763 26.1392 17.5907 25.5371 17.4472 24.757C17.189 23.3572 16.9037 21.9638 16.6248 20.5688C16.0287 17.5881 15.4311 14.6085 14.8318 11.6299C14.6644 10.8037 14.1943 10.4144 13.3352 10.3827C12.9336 10.3731 12.5303 10.3842 12.1287 10.3842Z" fill="white"/>
<path d="M42.5735 46.432H21.7505C21.7792 46.2064 21.9609 46.0809 22.0947 45.9268C23.8384 43.936 25.5724 41.9372 27.3368 39.9639C28.2564 38.9343 28.6596 37.7538 28.5018 36.3985C28.2723 34.4108 28.0078 32.4264 27.7575 30.4387C27.4388 27.9379 27.1253 25.4365 26.8172 22.9346L25.8689 15.3876C25.6202 13.4004 25.3716 11.4139 25.123 9.4278C25.0815 9.09573 25.0959 8.87806 25.5549 8.87965C30.9738 8.89448 36.3927 8.89818 41.8117 8.89077C42.4245 8.88464 43.0285 9.03681 43.5648 9.33247C45.0455 10.1539 45.8089 11.4186 45.8089 13.1123C45.8153 20.1658 45.8153 27.2186 45.8089 34.271C45.8089 36.9879 45.8089 39.7054 45.8089 42.4234C45.8151 43.4133 45.4521 44.3703 44.7905 45.1085C44.2087 45.8045 43.4214 46.1635 42.5735 46.432ZM32.8577 21.0804C32.2473 21.0804 31.6352 21.055 31.0264 21.0804C30.2295 21.1217 29.6892 21.6556 29.6749 22.3515C29.6605 23.014 30.1419 23.5622 30.8989 23.6416C31.283 23.6813 31.4249 23.8529 31.5364 24.1834C32.0731 25.7926 32.8553 27.3097 33.8554 28.6814C34.5184 29.5823 34.5312 29.5807 33.6658 30.3005C32.9454 30.8979 32.2042 31.4731 31.4902 32.08C31.2969 32.2392 31.1551 32.4516 31.0823 32.6908C31.0095 32.93 31.009 33.1852 31.081 33.4246C31.1529 33.664 31.2941 33.877 31.4868 34.0368C31.6795 34.1967 31.9152 34.2964 32.1644 34.3234C32.5931 34.3838 32.9485 34.1947 33.2673 33.9342C34.1439 33.2192 35.0284 32.5153 35.8811 31.7749C36.1999 31.4969 36.4087 31.4667 36.7386 31.7749C37.6518 32.5838 38.6096 33.3413 39.6074 34.0438C40.4697 34.6666 41.5375 34.2376 41.6874 33.2319C41.7686 32.6917 41.512 32.2881 41.0992 31.9608C40.2577 31.2999 39.4114 30.6453 38.5778 29.9716C38.0997 29.5855 38.1093 29.568 38.4774 29.0977C39.6512 27.6332 40.5649 25.9791 41.1789 24.2073C41.2969 23.8577 41.4467 23.6798 41.8483 23.64C42.1428 23.6299 42.4239 23.5148 42.6406 23.3157C42.8573 23.1166 42.9952 22.8466 43.0293 22.5549C43.0684 22.2957 43.0254 22.0309 42.9062 21.7974C42.7871 21.5638 42.5978 21.3732 42.3647 21.252C42.0804 21.1196 41.7681 21.058 41.4547 21.0725C40.339 21.0725 39.2233 21.0613 38.1077 21.0725C37.7363 21.0725 37.5865 20.9422 37.6295 20.5799C37.6343 20.491 37.6343 20.4019 37.6295 20.313C37.6295 19.0578 37.1753 18.4064 36.3115 18.4191C35.4476 18.4318 35.0189 19.0657 35.0173 20.3352C35.0173 20.4401 35.0077 20.5434 35.0173 20.653C35.0412 20.9549 34.9169 21.0836 34.6045 21.0756C34.0196 21.0629 33.4378 21.0804 32.8577 21.0804Z" fill="white"/>
<path d="M19.1989 41.0538C20.2269 41.0538 21.2533 41.0538 22.2813 41.0538C22.4056 41.0538 22.5745 40.9934 22.6415 41.1428C22.7084 41.2921 22.5634 41.3557 22.4821 41.4399C21.1545 42.9032 19.8204 44.3618 18.4976 45.8299C18.2888 46.0603 18.1039 46.0253 17.8744 45.8871C17.3071 45.5555 16.8266 45.0947 16.4723 44.5423C16.118 43.99 15.8999 43.3619 15.8359 42.7094C15.7833 42.2979 15.7515 41.8832 15.6845 41.4733C15.6303 41.146 15.7658 41.0522 16.0702 41.0538C17.1142 41.0586 18.1565 41.0538 19.1989 41.0538Z" fill="white"/>
<path d="M12.1622 18.3999C11.8196 18.3999 11.4769 18.3999 11.1358 18.3999C10.8713 18.3999 10.7485 18.322 10.8075 18.0329C11.1263 16.444 11.445 14.8647 11.7638 13.2806C11.7687 13.2365 11.7824 13.1937 11.804 13.1549C11.8257 13.1161 11.8548 13.0819 11.8898 13.0544C11.9248 13.0269 11.965 13.0066 12.0079 12.9947C12.0508 12.9828 12.0957 12.9795 12.1399 12.9851C12.188 12.9775 12.2371 12.9798 12.2842 12.9919C12.3313 13.004 12.3755 13.0256 12.4139 13.0554C12.4523 13.0852 12.4841 13.1225 12.5074 13.1651C12.5308 13.2077 12.5451 13.2545 12.5495 13.3029C12.8683 14.8917 13.1839 16.4763 13.4962 18.0567C13.5488 18.3188 13.4421 18.4094 13.1934 18.4046C12.8412 18.3951 12.4985 18.3999 12.1622 18.3999Z" fill="white"/>
<path d="M36.4072 23.6797C37.0319 23.6797 37.6567 23.6797 38.2815 23.6797C38.5508 23.6797 38.6321 23.775 38.5269 24.0324C38.025 25.2398 37.3531 26.3697 36.5315 27.3881C36.3849 27.5755 36.2542 27.574 36.1075 27.3881C35.3138 26.3666 34.6698 25.2378 34.195 24.0356C34.093 23.7766 34.179 23.6813 34.4452 23.6829C35.0987 23.6829 35.7505 23.6797 36.4072 23.6797Z" fill="white"/>
</svg>
