<svg width="51" height="51" viewBox="0 0 51 51" fill="none" xmlns="http://www.w3.org/2000/svg">
<path d="M50.8096 16.3218C50.1997 18.7222 49.5893 21.1237 48.9784 23.5262C48.1473 26.8325 47.3275 30.1404 46.4981 33.4451C46.2211 34.5499 45.5655 35.0532 44.4236 35.0532H14.024C12.8096 35.0532 12.2153 34.5901 11.9576 33.4065C10.5403 26.9247 9.12673 20.4413 7.71693 13.9563C7.35616 12.2999 6.98412 10.6451 6.63946 8.98395C6.55571 8.58031 6.36244 8.46292 5.96784 8.46774C4.38303 8.48543 2.79661 8.47739 1.2118 8.46774C0.567572 8.46774 0.556298 8.45327 0.554688 7.81163C0.554688 6.96254 0.565962 6.11345 0.554688 5.26436C0.554688 4.92344 0.681923 4.80926 1.01531 4.81087C3.35226 4.82052 5.68599 4.81087 8.02778 4.82213C8.95225 4.82213 9.58843 5.45251 9.82357 6.5187L11.0267 12.0137C11.1426 12.5395 11.2715 13.0621 11.3746 13.5896C11.3777 13.6421 11.3918 13.6933 11.4161 13.74C11.4403 13.7866 11.4741 13.8276 11.5153 13.8604C11.5564 13.8932 11.604 13.9169 11.655 13.9301C11.7059 13.9433 11.7591 13.9456 11.811 13.937C13.1832 13.937 14.549 13.9257 15.9293 13.937C16.2868 13.937 16.3657 13.7762 16.3819 13.4626C16.4785 11.5666 16.8763 9.73976 17.7686 8.05445C19.9106 4.02128 23.2526 1.59141 27.8105 1.03017C33.6328 0.316166 38.9364 3.41019 41.3072 8.78132C41.9199 10.139 42.2618 11.6029 42.3138 13.0911C42.3379 13.945 42.3476 13.945 43.2141 13.945C44.9632 13.945 46.7139 13.9868 48.4598 13.9289C49.5517 13.8935 50.3296 14.2634 50.8096 15.2428V16.3218ZM29.3889 4.58252C28.165 4.57659 26.9519 4.81174 25.8191 5.27452C24.6864 5.73729 23.6561 6.41859 22.7874 7.27942C21.9187 8.14025 21.2285 9.16371 20.7564 10.2912C20.2844 11.4187 20.0396 12.6281 20.0363 13.8501C20.0218 18.7501 23.8388 23.1998 29.3615 23.1998C34.5637 23.1998 38.6513 19.0797 38.7029 13.8887C38.7576 8.76363 34.5476 4.59377 29.3889 4.58252Z" fill="white"/>
<path d="M37.2698 50.1358C35.6322 50.1295 34.0632 49.4788 32.903 48.3249C31.7428 47.171 31.085 45.6069 31.0723 43.9718C31.0723 40.5626 33.8843 37.7436 37.2794 37.75C40.6745 37.7564 43.485 40.5867 43.4786 43.9847C43.465 45.6202 42.8049 47.1842 41.6421 48.3362C40.4793 49.4882 38.9079 50.135 37.2698 50.1358Z" fill="white"/>
<path d="M12.2363 44.0008C12.2221 43.1863 12.3703 42.3771 12.6724 41.6204C12.9745 40.8636 13.4244 40.1745 13.9958 39.5931C14.5673 39.0117 15.2489 38.5497 16.001 38.2339C16.7531 37.9181 17.5606 37.755 18.3765 37.7539C19.1924 37.7528 20.0003 37.9139 20.7532 38.2277C21.5061 38.5415 22.189 39.0017 22.762 39.5816C23.335 40.1615 23.7867 40.8495 24.0907 41.6054C24.3948 42.3614 24.5452 43.1702 24.5331 43.9847C24.5331 47.3135 21.7468 50.1052 18.4129 50.1245C16.7829 50.1225 15.2196 49.478 14.063 48.3312C12.9063 47.1845 12.2499 45.6282 12.2363 44.0008Z" fill="white"/>
<path d="M27.9056 18.3721C27.4368 18.3544 26.9905 18.1663 26.651 17.843C25.2224 16.4086 23.8003 14.9677 22.3668 13.5381C22.1397 13.3113 22.1526 13.1441 22.3781 12.9302C23.0658 12.2869 23.7487 11.6244 24.4171 10.9538C24.6603 10.7094 24.8214 10.7834 25.0227 10.9924C25.8731 11.872 26.7428 12.7356 27.5819 13.6265C27.8573 13.9192 28.0296 13.9288 28.326 13.6442C30.1202 11.9299 31.9385 10.243 33.7311 8.52716C34.0532 8.22001 34.2497 8.19267 34.5509 8.54163C35.1242 9.21061 35.7314 9.85225 36.3402 10.4875C36.5657 10.7206 36.606 10.8847 36.3402 11.1307C33.9694 13.3521 31.604 15.5782 29.244 17.8092C28.889 18.1647 28.4084 18.3668 27.9056 18.3721Z" fill="white"/>
</svg>
