<svg width="44" height="37" viewBox="0 0 44 37" fill="none" xmlns="http://www.w3.org/2000/svg">
<path d="M43.6118 3.66816C43.1402 5.86602 42.6681 8.06434 42.1956 10.2631C40.4717 18.3554 38.7493 26.4482 37.0281 34.5415C36.9389 35.0587 36.7603 35.5563 36.5004 36.0118C35.9977 36.8217 35.3043 37.1094 34.3629 36.8887C33.8808 36.7722 33.4274 36.5584 33.0303 36.2604C29.9446 33.9913 26.8491 31.732 23.7759 29.4504C23.4403 29.2018 23.2607 29.2284 22.9711 29.5132C21.4978 30.9584 19.9995 32.3785 18.5151 33.8084C18.0821 34.2273 17.6267 34.5987 17.0057 34.6923C16.5587 34.7579 16.4779 34.6699 16.51 34.2245C16.6464 32.3925 16.7778 30.5591 16.904 28.7243C16.9945 27.441 17.0865 26.1564 17.1672 24.8731C17.1786 24.7536 17.2148 24.6378 17.2736 24.5332C17.3323 24.4285 17.4123 24.3374 17.5084 24.2657L24.4708 17.9947L33.2309 10.1137C33.9967 9.42392 34.7626 8.73552 35.5326 8.04572C35.6282 7.96109 35.7184 7.87062 35.8028 7.77483C35.9058 7.65614 36.0116 7.52209 35.9128 7.35592C35.868 7.29108 35.8051 7.24089 35.7321 7.2116C35.659 7.1823 35.579 7.17519 35.502 7.19115C35.1639 7.23068 34.8397 7.34878 34.5551 7.53605L24.0015 14.1631C20.0274 16.657 16.0542 19.1509 12.0819 21.6448C11.9528 21.7388 11.8028 21.8 11.6449 21.8231C11.487 21.8462 11.3259 21.8305 11.1754 21.7774C8.03951 20.787 4.90086 19.8044 1.75943 18.8297C1.30651 18.7099 0.889061 18.4824 0.542402 18.1665C0.124659 17.7476 0.0759217 17.2756 0.419864 16.7911C0.710667 16.4041 1.09835 16.1011 1.54359 15.9128C2.93607 15.2621 4.39957 14.7664 5.83522 14.2134C13.7157 11.1805 21.5976 8.1551 29.4809 5.13712L40.5135 0.897801C40.9897 0.714879 41.4715 0.571054 41.9979 0.646457C42.9281 0.779111 43.3723 1.3963 43.6118 2.23132V3.66816Z" fill="white"/>
</svg>
