<svg width="46" height="46" viewBox="0 0 46 46" fill="none" xmlns="http://www.w3.org/2000/svg">
<path d="M23.1609 0.468262C18.7424 0.468262 14.4231 1.77852 10.7492 4.23333C7.07526 6.68815 4.21181 10.1773 2.5209 14.2595C0.829992 18.3417 0.387574 22.8337 1.24959 27.1673C2.11161 31.501 4.23935 35.4817 7.36374 38.6061C10.4881 41.7305 14.4688 43.8582 18.8025 44.7202C23.1362 45.5822 27.6281 45.1398 31.7103 43.4489C35.7925 41.758 39.2817 38.8946 41.7365 35.2207C44.1913 31.5468 45.5015 27.2274 45.5015 22.8089C45.5015 19.8751 44.9237 16.97 43.801 14.2595C42.6783 11.549 41.0327 9.08619 38.9581 7.01168C36.8836 4.93716 34.4208 3.29156 31.7103 2.16884C28.9998 1.04612 26.0947 0.468262 23.1609 0.468262ZM30.2653 34.3188C30.1819 34.5275 30.0548 34.7159 29.8926 34.8715C29.7303 35.027 29.5367 35.146 29.3246 35.2205C29.1126 35.295 28.8871 35.3232 28.6632 35.3033C28.4393 35.2834 28.2223 35.2159 28.0267 35.1052L21.9612 30.3913L18.0695 33.9837C17.9792 34.0504 17.8735 34.0933 17.7623 34.1085C17.651 34.1237 17.5377 34.1108 17.4328 34.0708L18.179 27.3932L18.2013 27.4133L18.217 27.2815C18.217 27.2815 29.1303 17.3444 29.5749 16.9221C30.0262 16.4999 29.8765 16.4083 29.8765 16.4083C29.9033 15.8945 29.07 16.4083 29.07 16.4083L14.609 25.7109L8.58815 23.6601C8.58815 23.6601 7.66325 23.3294 7.57613 22.5989C7.48453 21.875 8.6172 21.4818 8.6172 21.4818L32.5596 11.9692C32.5596 11.9692 34.5278 11.0935 34.5278 12.5456L30.2653 34.3188Z" fill="white"/>
</svg>
