<svg width="75" height="24" viewBox="0 0 75 24" fill="none" xmlns="http://www.w3.org/2000/svg">
<path d="M54.5455 1.33955C52.8078 0.706322 50.9708 0.388567 49.1213 0.401244C43.1401 0.401244 38.9159 3.41428 38.886 7.73945C38.8486 10.917 41.8878 12.7076 44.1868 13.7693C46.5457 14.8608 47.3344 15.5487 47.327 16.5244C47.312 18.0085 45.4429 18.6813 43.7046 18.6813C41.3158 18.6813 40.0112 18.3486 38.0037 17.515L37.2598 17.1673L36.4112 22.1467C37.8654 22.7523 40.4859 23.2719 43.1924 23.3168C49.5512 23.3168 53.7082 20.3224 53.7568 15.7206C53.8091 13.1824 52.1643 11.2646 48.7026 9.67961C46.598 8.65158 45.2934 7.96374 45.2934 6.92077C45.2934 5.99742 46.4111 5.01052 48.7475 5.01052C50.3025 4.9729 51.8478 5.26464 53.282 5.86658L53.8428 6.11704L54.6913 1.3059L54.5455 1.33955ZM70.0668 0.804975H65.394C63.9398 0.804975 62.8445 1.20497 62.209 2.64794L53.2222 23.0065H59.581L60.852 19.6682L68.6126 19.6757C68.7958 20.457 69.3565 23.0065 69.3565 23.0065H74.9639L70.0668 0.804975ZM30.2842 0.618061H36.344L32.5534 22.8308H26.5011L30.2842 0.610585V0.618061ZM14.9013 12.8609L15.5293 15.9449L21.4507 0.804975H27.8693L18.333 22.9766H11.9294L6.69581 4.20305C6.61105 3.89349 6.41198 3.62763 6.13881 3.45914C4.25249 2.48472 2.25381 1.74525 0.1875 1.2573L0.269742 0.79002H10.0229C11.3462 0.842355 12.4116 1.2573 12.7667 2.67037L14.8976 12.8721L14.9013 12.8609ZM62.5903 15.1263L65.0052 8.91326C64.9753 8.98055 65.5024 7.63104 65.8089 6.79741L66.2239 8.71514L67.6257 15.1225H62.5865L62.5903 15.1263Z" fill="white"/>
</svg>
